<mxfile host="app.diagrams.net" modified="2023-06-13T08:03:33.870Z" agent="Mozilla/5.0 (Macintosh; Intel Mac OS X 10_15_7) AppleWebKit/537.36 (KHTML, like Gecko) Chrome/114.0.0.0 Safari/537.36" version="21.3.8" etag="khfJtgdoIgo2I8Uqh2tW" type="github">
  <diagram name="페이지-1" id="AMEsDUPyBj0YSr2enD3_">
    <mxGraphModel>
      <root>
        <mxCell id="0" />
        <mxCell id="1" parent="0" />
      </root>
    </mxGraphModel>
  </diagram>
</mxfile>
